<svg width="15" height="16" viewBox="0 0 15 16" fill="none" xmlns="http://www.w3.org/2000/svg">
<path d="M9.97442 15.3782V13.3177C10.0013 12.9754 9.95511 12.6312 9.83873 12.3081C9.72235 11.985 9.53855 11.6904 9.29955 11.4439C11.5539 11.1926 13.9231 10.3382 13.9231 6.41821C13.9229 5.41583 13.5374 4.45189 12.8462 3.7259C13.1735 2.84894 13.1503 1.87959 12.7816 1.01924C12.7816 1.01924 11.9344 0.767954 9.97442 2.0818C8.32888 1.63582 6.59432 1.63582 4.94877 2.0818C2.98877 0.767954 2.14159 1.01924 2.14159 1.01924C1.77283 1.87959 1.74969 2.84894 2.07698 3.7259C1.38065 4.45728 0.994685 5.42993 1.00006 6.43975C1.00006 10.331 3.36928 11.1854 5.62364 11.4654C5.38743 11.7095 5.20527 12.0006 5.08899 12.3197C4.97272 12.6388 4.92494 12.9789 4.94877 13.3177V15.3782" stroke="#FBF7FF" stroke-linecap="round" stroke-linejoin="round"/>
</svg>
